<svg width="816" height="396" viewBox="0 0 816 396" fill="none" xmlns="http://www.w3.org/2000/svg">
<path d="M547.47 101.41C553.12 85.77 557.4 77.58 560.32 76.86C561.37 76.65 562.17 77.44 562.76 79.23C565.51 87.66 563.18 99.57 555.78 114.95C562.02 115.05 567.4 114.65 571.93 113.73C581.85 111.73 588.36 107.82 591.48 102.02C595.43 95.37 596.6 88.73 595 82.11C591.82 73.22 586.97 66.95 580.45 63.29C573.93 59.64 567.14 58.52 560.1 59.94C553.84 61.2 548.44 66.38 543.89 75.47C535.83 91.67 529.07 115.16 523.62 145.95C525.42 125.03 527.67 107.35 530.38 92.91L534.57 71.64C534.72 70.66 534.66 69.79 534.41 69.02C533.16 65.46 528.4 64.52 520.14 66.18C514.05 67.41 508.42 69.64 503.26 72.86C499.06 75.61 496.33 78.75 495.06 82.27C492.93 108.44 491.52 128.13 490.82 141.34C490.44 148.34 490.15 154.88 489.93 160.98C486.38 180.09 479.92 196.25 470.55 209.46C459.79 224.64 449.62 233.19 440.05 235.13C430.74 237.01 424.03 231.63 419.9 218.98C417.19 210.68 415.68 200.8 415.38 189.35C415.08 177.91 415.62 166.56 417.01 155.32C418.4 144.08 420.54 134.52 423.45 126.65C426.35 118.78 429.63 114.47 433.28 113.74C437.93 113.49 440.97 115.59 442.43 120.06C444.64 126.83 442.6 137.8 436.33 152.95L434.58 156.98C440.17 161.3 445.35 162.98 450.13 162.01C454.47 161.13 458.14 158.52 461.13 154.17C464.12 149.82 465.99 144.34 466.75 137.72C467.51 131.1 466.64 123.95 464.14 116.29C462.14 110.16 458.84 104.39 454.25 98.98C449.66 93.58 443.95 89.49 437.11 86.71C430.27 83.94 422.42 83.45 413.55 85.24C408.33 86.29 403.6 90.42 399.36 97.6C395.12 104.79 391.5 113.59 388.5 124C385.5 134.41 383.23 145.29 381.68 156.63C380.71 163.78 380.05 170.65 379.71 177.25L379.58 177.28C374.96 194.96 372.09 205.62 370.95 209.25L368.56 218.11C360.39 245.36 354.29 259.39 350.3 260.2C349.74 260.18 349.31 259.72 349.01 258.83C346.89 252.32 348.91 225.69 355.09 178.96C359.21 149.81 362.03 130.44 363.55 120.88C364.51 113.88 365 110.27 365.03 110.06C365.05 109.85 364.98 109.49 364.81 108.98C363.98 106.43 361.39 104.74 357.04 103.91C352.69 103.09 348.17 103.15 343.47 104.09C339.29 104.93 335.57 106.54 332.31 108.9C329.05 111.27 327.22 114.39 326.82 118.28L324.49 141.42C321.67 137.9 318.01 133.98 313.49 129.65C308.97 125.32 303.85 121.76 298.12 118.97C292.39 116.18 286.39 115.41 280.13 116.68C274.91 117.73 270.3 122.31 266.31 130.4C262.32 138.49 259 148.42 256.35 160.19C253.7 171.96 251.71 184.21 250.39 196.93C249.07 209.66 248.5 221.42 248.69 232.21C248.87 242.99 249.88 251.2 251.71 256.82C254.75 266.15 258.82 273.36 263.91 278.46C269.01 283.56 274.35 286.94 279.94 288.61C285.54 290.27 290.6 290.64 295.12 289.73C301.3 288.48 308.97 273.93 318.15 246.07C318.4 250.24 318.88 253.41 319.58 255.58C322.87 265.67 327.01 272.4 332 275.75C336.99 279.1 343.79 279.91 352.4 278.17C355.96 277.45 359.49 273.47 362.97 266.23C369.25 254.01 375.57 235.55 381.94 210.86C382.06 211.27 382.17 211.69 382.3 212.08C384.93 220.13 389.21 228.22 395.15 236.35C401.09 244.48 407.91 250.96 415.61 255.81C423.31 260.66 431.11 262.28 439.03 260.68C450.43 258.38 460.5 251.75 469.26 240.79C477.63 230.31 484.59 217.55 490.13 202.54C490.63 209.11 491.42 214.07 492.51 217.41C494.55 223.67 498.18 229.03 503.39 233.49C508.6 237.95 513.68 241.22 518.61 243.28C523.55 245.35 527.37 246.11 530.06 245.56L530.45 245.48C532.41 244.94 533.01 243.53 532.26 241.23C530.01 234.33 528.38 228.33 527.36 223.22C526.74 201.7 528.52 179.93 532.7 157.91C536.9 135.88 541.81 117.05 547.47 101.41ZM318.09 222.79C316.02 228.38 313.46 234.75 310.42 241.91C307.38 249.06 304.29 255.5 301.15 261.24C298.01 266.98 295.32 270.08 293.05 270.53C292.18 270.71 291.38 269.65 290.62 267.35C289.37 263.52 288.43 256.96 287.82 247.69C287.21 238.42 286.97 228.09 287.1 216.69C287.23 205.3 287.85 194.25 288.95 183.54C290.05 172.83 291.58 163.81 293.54 156.46C295.5 149.12 298.05 145.13 301.18 144.5C308.14 143.09 315.47 145.97 323.19 153.13C320.76 176.09 319.06 199.31 318.09 222.79Z" fill="url(#paint0_linear_1_2)"/>
<path d="M619.83 192.6C625.15 198.54 630.7 203.11 636.46 206.3C642.23 209.49 647.65 211.6 652.71 212.62C657.77 213.64 661.52 213.9 663.96 213.41C676.22 210.93 686.03 200.92 693.38 183.37L695.66 183.11C702.88 181.65 709.07 176.9 714.24 168.84C719.4 160.79 723.63 150.94 726.93 139.31C730.23 127.68 732.64 115.66 734.15 103.23L734.03 103.25C735.65 94.91 737.15 87.92 738.53 82.32C740.23 75.44 742.64 68.69 745.76 62.07C745.73 64.53 746.44 67.99 747.9 72.47C750.19 79.5 755.55 92.17 763.98 110.48C772.41 128.8 777.81 141.59 780.18 148.87C781.93 154.24 782.44 159.35 781.7 164.19C780.96 169.04 779.43 173.1 777.11 176.35C774.79 179.61 772.11 181.55 769.06 182.17C764.53 183.08 760 182.33 755.46 179.91C750.92 177.49 747.81 173.73 746.15 168.62C745.41 165.78 745.95 164.17 747.78 163.8C749.26 163.5 751.35 163.66 754.05 164.27C756.75 164.88 759.28 164.95 761.63 164.48C765.19 163.76 767.37 161.04 768.15 156.32C768.93 151.6 768.51 146.75 766.88 141.77C765.5 137.55 763.33 133.94 760.36 130.93C757.38 127.92 753.81 126.84 749.63 127.68C743.63 128.89 738.93 131.89 735.52 136.66C732.12 141.43 730.05 147.03 729.31 153.44C728.57 159.85 729.14 165.93 731.02 171.68C732.94 177.56 736.16 182.97 740.69 187.91C745.22 192.85 750.68 196.58 757.07 199.11C763.45 201.63 770.3 202.16 777.61 200.68C803.49 191.91 814.14 172.27 809.57 141.73C808.8 137.67 807.73 133.53 806.35 129.31C803.73 121.26 800.28 112.97 796.02 104.44C791.75 95.9 787.38 87.6 782.89 79.51C779.24 72.9 775.95 66.68 772.99 60.88C770.03 55.08 767.84 50.01 766.43 45.66C764.84 40.81 764.45 37.11 765.25 34.56C766.04 32.02 767.4 30.55 769.31 30.16C772.09 29.6 775.27 31.03 778.85 34.47C782.42 37.9 785.13 42.43 786.96 48.04C787.88 50.85 789.55 52.93 791.99 54.28C794.42 55.62 796.85 56.05 799.29 55.56C802.16 54.98 804.45 52.98 806.17 49.57C807.89 46.16 807.68 41.2 805.56 34.68C803.1 27.14 798.38 20.92 791.4 15.99C784.42 11.07 777.93 9.21 771.92 10.43C768.97 11.03 765.45 12.32 761.37 14.3C757.29 16.28 752.97 20.39 748.42 26.62C743.87 32.85 739.36 42.34 734.89 55.09C730.43 67.84 726.18 85.1 722.16 106.89L721.51 111.31L722.11 111.2C718.69 131.92 711.6 148.06 700.82 159.61C703.83 145.52 705.24 131.35 705.04 117.09C704.84 102.83 703.22 91.04 700.17 81.72C697.05 72.14 692.19 64.2 685.59 57.91C678.99 51.62 671.85 47.11 664.14 44.37C656.44 41.64 649.45 40.9 643.19 42.17C636.93 43.44 630.65 47.94 624.37 55.67C618.08 63.41 612.79 73.26 608.49 85.23C604.19 97.2 601.68 110.47 600.96 125.04C600.25 139.62 602.37 154.51 607.32 169.72C610.33 179.03 614.51 186.66 619.83 192.6ZM639.48 111.93C641 98.69 643.26 87.27 646.25 77.68C649.24 68.09 652.82 62.87 657 62.03C662.47 61.47 666.69 65.73 669.65 74.79C672.81 84.5 673.95 97.52 673.06 113.83C672.17 130.14 669.87 145.28 666.17 159.24C666.15 161.62 661.6 174.48 661.6 174.48C661.04 176.33 657.37 181.39 654.96 184.59C653.15 186.73 651.33 187.98 649.51 188.34C645.94 189.06 643.16 186.36 641.16 180.22C638.91 173.32 637.69 163.53 637.49 150.83C637.3 138.14 637.96 125.18 639.48 111.93Z" fill="url(#paint1_linear_1_2)"/>
<path d="M255.33 308.38L254.45 306.11C252.43 301.62 250.29 295.92 248.04 289.02C236.46 253.5 229.77 213.66 227.98 169.5C227.33 150.16 227.07 133.3 227.19 118.9C227.32 104.51 228.57 91.15 230.95 78.82C233.33 66.49 235.87 60.06 238.56 59.51C238.81 57.14 238.66 55.13 238.12 53.47C236.87 49.64 233.99 47.26 229.47 46.33C224.95 45.41 220.38 45.41 215.78 46.34C212.3 47.04 209.24 48.1 206.6 49.52C203.95 50.94 202.35 52.56 201.78 54.37C201.21 56.19 200.12 59.3 198.5 63.72C186.27 95.87 175.81 131.62 167.13 170.95C164.77 140.38 163.77 116.28 164.13 98.64C164.1 90.88 164 84.37 163.81 79.1C163.62 73.83 163.09 69.85 162.21 67.16C159.83 59.88 154.82 55.31 147.17 53.45C141.46 52.15 136 52.03 130.78 53.09C127.04 53.85 123.4 60.95 119.86 74.39C116.31 87.83 112.41 104.93 108.14 125.67C104.8 142.14 100.93 159.74 96.56 178.46C92.2056 197.13 87.152 215.629 81.41 233.92C75.68 252.17 69.1 269.09 61.66 284.68C54.23 300.28 45.79 313.28 36.35 323.7C26.91 334.12 16.1 340.56 3.92001 343.01L4.98001 346.68C8.11001 356.26 12.25 363.93 17.42 369.7C22.59 375.46 28.11 379.73 33.97 382.5C39.83 385.26 45.46 386.89 50.85 387.36C56.24 387.84 60.81 387.7 64.55 386.94C69.16 386.01 74.55 375.9 80.73 356.61C86.91 337.32 93.2 313.96 99.6 286.52C105.942 259.316 111.926 232.031 117.55 204.67C123.12 177.53 127.57 154.58 130.9 135.79L136.15 107.97L135.71 121.13C135.55 130.02 135.92 147.23 136.84 172.78C137.75 198.33 138.48 216.77 139.02 228.1C139.56 239.43 140.62 247.93 142.19 253.6C143.81 258.59 146.77 263.03 151.06 266.93C155.34 270.83 159.84 273.74 164.54 275.64C169.24 277.55 173.03 278.22 175.9 277.64L177.93 277.03L178.07 276.59C180.09 275.09 180.2 271.6 178.41 266.11C179.09 248 182.03 224.76 187.25 196.41C192.47 168.06 198.12 143.6 204.21 123.03L206.69 117.42C205.13 168.94 205.03 208.85 206.39 237.18C207.19 258.67 208.74 273.95 211.04 283.01C212.66 288 216.25 293.17 221.8 298.51C227.34 303.86 233.64 309.02 240.69 314C247.74 318.98 252.83 321.15 255.96 320.52C258.18 319.93 258.66 317.72 257.41 313.89C256.78 311.97 256.09 310.13 255.33 308.38Z" fill="url(#paint2_linear_1_2)"/>
<path d="M799.576 220.241L612.424 264.177C606.121 265.654 601 273.593 601 281.9V350.389C601 358.707 606.121 364.239 612.424 362.761L799.576 318.826C805.887 317.348 811 309.41 811 301.092V232.603C811 224.295 805.894 218.754 799.576 220.241Z" fill="url(#paint3_linear_1_2)"/>
<g filter="url(#filter0_d_1_2)">
<path d="M660.911 320.29C660.618 318.915 660.737 317.532 661.267 316.141C661.817 314.72 662.627 313.269 663.697 311.791C664.762 310.287 666.015 308.729 667.456 307.118C668.923 305.502 670.419 303.773 671.944 301.931C673.47 300.089 674.958 298.135 676.409 296.07C677.88 293.973 679.143 291.708 680.196 289.275C682.603 283.811 683.535 278.115 682.994 272.187C675.249 274.578 670.13 276.425 667.638 277.727C665.141 279.003 663.32 280.269 662.175 281.524C661.057 282.773 660.624 283.997 660.879 285.194C661.133 286.391 661.431 287.353 661.772 288.079C662.133 288.774 662.493 289.403 662.852 289.966C663.211 290.529 663.531 291.033 663.812 291.479C664.119 291.92 664.313 292.331 664.394 292.713C664.54 293.401 663.834 294.337 662.275 295.52C660.853 296.594 659.772 297.21 659.034 297.367C658.32 297.519 657.578 297.41 656.808 297.041C656.032 296.647 655.236 296.098 654.421 295.392C652.428 293.659 651.226 291.825 650.815 289.889C650.403 287.953 650.538 286.207 651.219 284.651C651.9 283.096 652.95 281.648 654.369 280.308C655.814 278.962 657.574 277.723 659.649 276.59C661.724 275.456 663.961 274.395 666.36 273.406C668.759 272.417 671.241 271.503 673.805 270.665C676.394 269.822 678.928 269.031 681.407 268.291C683.88 267.526 686.216 266.803 688.414 266.123C690.638 265.437 692.586 264.77 694.258 264.122C697.873 262.714 699.674 261.48 699.661 260.417C699.648 259.355 699.728 258.353 699.901 257.411C700.068 256.444 700.32 255.565 700.658 254.774C701.403 253.018 702.399 252.008 703.648 251.743C704.896 251.477 706.047 251.885 707.102 252.965C708.121 254 708.774 255.192 709.061 256.542C709.342 257.867 709.261 258.989 708.818 259.909C708.374 260.828 707.67 261.71 706.704 262.554C705.759 263.368 704.581 264.15 703.17 264.903C701.759 265.655 700.208 266.371 698.515 267.051C695.841 268.125 692.067 269.406 687.192 270.895C687.481 272.005 687.737 273.082 687.959 274.126C688.175 275.145 688.42 276.424 688.694 277.964C688.988 279.472 689.274 281.381 689.553 283.692C689.856 285.997 690.093 288.302 690.264 290.609C690.46 292.91 690.589 295.079 690.649 297.116C690.802 301.344 690.701 304.374 690.345 306.206C690.014 308.034 689.543 309.825 688.931 311.579C688.319 313.333 687.588 315.032 686.74 316.677C685.917 318.316 684.998 319.882 683.985 321.376C682.965 322.844 681.888 324.164 680.753 325.337C678.357 327.843 676.026 329.337 673.759 329.819C671.517 330.296 668.951 329.497 666.061 327.422C663.201 325.367 661.485 322.99 660.911 320.29ZM723.343 313.889C720.968 312.237 719.044 310.197 717.569 307.768C716.089 305.314 715.111 302.966 714.634 300.724C714.158 298.482 714.004 297.197 714.174 296.868C714.369 296.534 714.598 296.232 714.86 295.964C715.319 295.493 715.909 295.075 716.63 294.709C719.856 299.614 724.446 302.233 730.4 302.564C732.317 302.689 734.193 302.557 736.027 302.167C737.886 301.772 739.497 301.27 740.858 300.661C742.24 300.021 743.392 299.244 744.316 298.329C746.309 296.308 746.978 293.756 746.323 290.674C745.825 288.33 744.34 285.917 741.869 283.434C740.808 282.328 739.687 281.249 738.505 280.195C737.317 279.117 736.19 278.012 735.124 276.88C732.631 274.295 731.16 271.946 730.711 269.831C730.256 267.692 730.173 265.859 730.461 264.334C730.769 262.777 731.326 261.328 732.132 259.985C732.933 258.617 733.942 257.351 735.159 256.187C736.401 255.017 737.788 253.964 739.319 253.026C742.381 251.15 745.772 249.817 749.491 249.027C753.006 248.28 755.849 248.062 758.018 248.373C760.182 248.658 761.765 249.094 762.768 249.679C763.797 250.259 764.39 250.919 764.547 251.657C764.704 252.396 764.722 253.044 764.601 253.603C764.474 254.135 764.284 254.682 764.031 255.241C763.478 256.397 762.886 257.308 762.255 257.975C759.902 255.546 756.553 254.195 752.208 253.92C750.808 253.845 749.369 253.965 747.892 254.279C746.44 254.587 745.026 255.074 743.65 255.74C742.274 256.405 741.108 257.185 740.154 258.08C737.986 260.032 737.146 262.154 737.633 264.446C737.898 265.695 738.597 266.851 739.728 267.915C740.885 268.973 742.256 270.04 743.843 271.114C745.454 272.182 747.181 273.293 749.023 274.445C750.866 275.598 752.615 276.877 754.272 278.282C758.188 281.549 760.552 285.094 761.364 288.914C762.171 292.71 762.159 296.16 761.328 299.265C760.491 302.345 759.061 305.072 757.036 307.446C753.003 312.27 747.306 315.464 739.944 317.029C733.729 318.35 728.195 317.303 723.343 313.889Z" fill="white"/>
</g>
<defs>
<filter id="filter0_d_1_2" x="641.341" y="239.354" width="139.437" height="102.628" filterUnits="userSpaceOnUse" color-interpolation-filters="sRGB">
<feFlood flood-opacity="0" result="BackgroundImageFix"/>
<feColorMatrix in="SourceAlpha" type="matrix" values="0 0 0 0 0 0 0 0 0 0 0 0 0 0 0 0 0 0 127 0" result="hardAlpha"/>
<feOffset dy="4"/>
<feGaussianBlur stdDeviation="2"/>
<feComposite in2="hardAlpha" operator="out"/>
<feColorMatrix type="matrix" values="0 0 0 0 0 0 0 0 0 0 0 0 0 0 0 0 0 0 0.25 0"/>
<feBlend mode="normal" in2="BackgroundImageFix" result="effect1_dropShadow_1_2"/>
<feBlend mode="normal" in="SourceGraphic" in2="effect1_dropShadow_1_2" result="shape"/>
</filter>
<linearGradient id="paint0_linear_1_2" x1="414.794" y1="406.337" x2="422.84" y2="134.094" gradientUnits="userSpaceOnUse">
<stop stop-color="#7950F2"/>
<stop offset="0.628" stop-color="#BE4BDB"/>
</linearGradient>
<linearGradient id="paint1_linear_1_2" x1="697.634" y1="414.697" x2="705.68" y2="142.454" gradientUnits="userSpaceOnUse">
<stop stop-color="#7950F2"/>
<stop offset="0.628" stop-color="#BE4BDB"/>
</linearGradient>
<linearGradient id="paint2_linear_1_2" x1="129.003" y1="397.89" x2="137.049" y2="125.647" gradientUnits="userSpaceOnUse">
<stop stop-color="#7950F2"/>
<stop offset="0.628" stop-color="#BE4BDB"/>
</linearGradient>
<linearGradient id="paint3_linear_1_2" x1="703.263" y1="413.55" x2="713.847" y2="141.883" gradientUnits="userSpaceOnUse">
<stop stop-color="#7950F2"/>
<stop offset="0.628" stop-color="#BE4BDB"/>
</linearGradient>
</defs>
</svg>
